HIERARCHY
ROOT hip
{
  OFFSET 0 0 0
  CHANNELS 6 Xposition Yposition Zposition Zrotation Yrotation Xrotation
  JOINT abdomen
  {
    OFFSET 0 20.6881 -0.73152
    CHANNELS 3 Zrotation Xrotation Yrotation
    JOINT chest
    {
      OFFSET 0 11.7043 -0.48768
      CHANNELS 3 Zrotation Xrotation Yrotation
      JOINT neck
      {
        OFFSET 0 22.1894 -2.19456
        CHANNELS 3 Zrotation Xrotation Yrotation
        JOINT head
        {
          OFFSET -0.24384 7.07133 1.2192
          CHANNELS 3 Zrotation Xrotation Yrotation
          JOINT leftEye
          {
            OFFSET 4.14528 8.04674 8.04672
            CHANNELS 3 Zrotation Xrotation Yrotation
            End Site
            {
              OFFSET 1 0 0
            }
          }
          JOINT rightEye
          {
            OFFSET -3.6576 8.04674 8.04672
            CHANNELS 3 Zrotation Xrotation Yrotation
            End Site
            {
              OFFSET 1 0 0
            }
          }
        }
      }
      JOINT rCollar
      {
        OFFSET -2.68224 19.2634 -4.8768
        CHANNELS 3 Zrotation Xrotation Yrotation
        JOINT rShldr
        {
          OFFSET -8.77824 -1.95073 1.46304
          CHANNELS 3 Zrotation Xrotation Yrotation
          JOINT rForeArm
          {
            OFFSET -28.1742 -1.7115 0.48768
            CHANNELS 3 Zrotation Xrotation Yrotation
            JOINT rHand
            {
              OFFSET -22.5879 0.773209 7.07136
              CHANNELS 3 Zrotation Xrotation Yrotation
              JOINT rThumb1
              {
                OFFSET -1.2192 -0.487915 3.41376
                CHANNELS 3 Zrotation Xrotation Yrotation
                JOINT rThumb2
                {
                  OFFSET -3.37035 -0.52449 3.41376
                  CHANNELS 3 Zrotation Xrotation Yrotation
                  End Site
                  {
                    OFFSET -1.78271 -1.18214 1.43049
                  }
                }
              }
              JOINT rIndex1
              {
                OFFSET -7.75947 0.938293 5.60832
                CHANNELS 3 Zrotation Xrotation Yrotation
                JOINT rIndex2
                {
                  OFFSET -2.54057 -0.884171 1.56538
                  CHANNELS 3 Zrotation Xrotation Yrotation
                  End Site
                  {
                    OFFSET -1.62519 -0.234802 1.16502
                  }
                }
              }
              JOINT rMid1
              {
                OFFSET -8.24714 1.18213 3.41376
                CHANNELS 3 Zrotation Xrotation Yrotation
                JOINT rMid2
                {
                  OFFSET -3.10165 -0.590103 1.0647
                  CHANNELS 3 Zrotation Xrotation Yrotation
                  End Site
                  {
                    OFFSET -2.48547 -0.328903 0.83742
                  }
                }
              }
              JOINT rRing1
              {
                OFFSET -8.82822 0.546677 1.51678
                CHANNELS 3 Zrotation Xrotation Yrotation
                JOINT rRing2
                {
                  OFFSET -2.60934 -0.819778 -0.0198488
                  CHANNELS 3 Zrotation Xrotation Yrotation
                  End Site
                  {
                    OFFSET -2.33842 -0.294052 0.168128
                  }
                }
              }
              JOINT rPinky1
              {
                OFFSET -8.27202 -0.0477905 -0.4584
                CHANNELS 3 Zrotation Xrotation Yrotation
                JOINT rPinky2
                {
                  OFFSET -1.82734 -0.647385 -0.700984
                  CHANNELS 3 Zrotation Xrotation Yrotation
                  End Site
                  {
                    OFFSET -1.69225 -0.51767 -0.607171
                  }
                }
              }
            }
          }
        }
      }
      JOINT lCollar
      {
        OFFSET 2.68224 19.2634 -4.8768
        CHANNELS 3 Zrotation Xrotation Yrotation
        JOINT lShldr
        {
          OFFSET 8.77824 -1.95073 1.46304
          CHANNELS 3 Zrotation Xrotation Yrotation
          JOINT lForeArm
          {
            OFFSET 28.1742 -1.7115 0.48768
            CHANNELS 3 Zrotation Xrotation Yrotation
            JOINT lHand
            {
              OFFSET 22.5879 0.773209 7.07136
              CHANNELS 3 Zrotation Xrotation Yrotation
              JOINT lThumb1
              {
                OFFSET 1.2192 -0.487915 3.41376
                CHANNELS 3 Zrotation Xrotation Yrotation
                JOINT lThumb2
                {
                  OFFSET 3.37035 -0.52449 3.41376
                  CHANNELS 3 Zrotation Xrotation Yrotation
                  End Site
                  {
                    OFFSET 1.78271 -1.18214 1.43049
                  }
                }
              }
              JOINT lIndex1
              {
                OFFSET 7.75947 0.938293 5.60832
                CHANNELS 3 Zrotation Xrotation Yrotation
                JOINT lIndex2
                {
                  OFFSET 2.54057 -0.884171 1.56538
                  CHANNELS 3 Zrotation Xrotation Yrotation
                  End Site
                  {
                    OFFSET 1.62519 -0.234802 1.16502
                  }
                }
              }
              JOINT lMid1
              {
                OFFSET 8.24714 1.18213 3.41376
                CHANNELS 3 Zrotation Xrotation Yrotation
                JOINT lMid2
                {
                  OFFSET 3.10165 -0.590103 1.0647
                  CHANNELS 3 Zrotation Xrotation Yrotation
                  End Site
                  {
                    OFFSET 2.48547 -0.328903 0.83742
                  }
                }
              }
              JOINT lRing1
              {
                OFFSET 8.82822 0.546677 1.51678
                CHANNELS 3 Zrotation Xrotation Yrotation
                JOINT lRing2
                {
                  OFFSET 2.60934 -0.819778 -0.0198488
                  CHANNELS 3 Zrotation Xrotation Yrotation
                  End Site
                  {
                    OFFSET 2.33842 -0.294052 0.168128
                  }
                }
              }
              JOINT lPinky1
              {
                OFFSET 8.27202 -0.0477905 -0.4584
                CHANNELS 3 Zrotation Xrotation Yrotation
                JOINT lPinky2
                {
                  OFFSET 1.82734 -0.647385 -0.700984
                  CHANNELS 3 Zrotation Xrotation Yrotation
                  End Site
                  {
                    OFFSET 1.69225 -0.51767 -0.607171
                  }
                }
              }
            }
          }
        }
      }
    }
  }
  JOINT rButtock
  {
    OFFSET -8.77824 4.35084 1.2192
    CHANNELS 3 Zrotation Xrotation Yrotation
    JOINT rThigh
    {
      OFFSET 0 -1.70687 -2.19456
      CHANNELS 3 Zrotation Xrotation Yrotation
      JOINT rShin
      {
        OFFSET 0 -36.8199 0.73152
        CHANNELS 3 Zrotation Xrotation Yrotation
        JOINT rFoot
        {
          OFFSET 0.73152 -45.1104 -5.12064
          CHANNELS 3 Zrotation Xrotation Yrotation
          End Site
          {
            OFFSET -1.1221 -3.69964 12.103
          }
        }
      }
    }
  }
  JOINT lButtock
  {
    OFFSET 8.77824 4.35084 1.2192
    CHANNELS 3 Zrotation Xrotation Yrotation
    JOINT lThigh
    {
      OFFSET 0 -1.70687 -2.19456
      CHANNELS 3 Zrotation Xrotation Yrotation
      JOINT lShin
      {
        OFFSET 0 -36.8199 0.73152
        CHANNELS 3 Zrotation Xrotation Yrotation
        JOINT lFoot
        {
          OFFSET -0.73152 -45.1104 -5.12064
          CHANNELS 3 Zrotation Xrotation Yrotation
          End Site
          {
            OFFSET 1.1221 -3.69964 12.103
          }
        }
      }
    }
  }
}
MOTION
Frames:	4
Frame Time:	0.00833333
-5.34031 83.7495 27.3903 -1.6231 3.9715 4.1323 -4.35199 7.40552 3.1022 0.293156 -6.37786 0.815949 -5.55237 0.200063 -5.82169 13.5706 0.037318 -9.98547 -0.0 0.0 0.0 -0.0 0.0 0.0 1.97555e-14 1.56121e-13 7.76968e-15 12.9129 19.8942 25.5722 -28.2131 -32.08 70.5769 -2.6411 41.0867 7.03923 -4.60386e-10 -3.56892e-09 -1.01444e-09 -8.22904e-10 -6.14147e-09 -1.73432e-09 -4.60382e-10 -3.56891e-09 -1.01445e-09 7.73091 5.47488 0.417314 -4.60384e-10 -3.56893e-09 -1.01444e-09 2.90554 0.965183 0.102902 -4.60379e-10 -3.56892e-09 -1.01444e-09 10.2786 0.731801 0.0259123 -4.60393e-10 -3.56892e-09 -1.01444e-09 2.22167 -0.733487 -0.20892 1.97141e-14 1.56133e-13 7.50179e-15 -44.3696 52.9444 -29.7353 25.2484 -47.6 -99.0506 3.30705 -44.7793 8.01674 -4.76586e-10 -6.05112e-10 -7.64381e-10 -7.94995e-10 -1.13889e-09 -1.3335e-09 -4.7659e-10 -6.05114e-10 -7.64376e-10 -7.73091 5.47488 -0.417314 -4.76586e-10 -6.05108e-10 -7.64379e-10 -2.90554 0.965183 -0.102902 -4.7659e-10 -6.05114e-10 -7.64379e-10 -10.2786 0.731801 -0.0259123 -4.76577e-10 -6.05113e-10 -7.64388e-10 -2.22167 -0.733487 0.20892 -2.03217e-16 0.0 -3.88251e-19 -21.5984 -2.90124 -0.0112053 0.000320944 -0.379791 0.00300879 0.534027 3.27708 -0.0226644 2.03217e-16 0.0 3.88251e-19 8.07602 -15.0354 -7.88783 0.0735796 22.8236 -0.50149 1.77433 -14.3096 8.01199
-5.39393 83.7518 27.4277 -1.7239 4.2142 4.1164 -4.2023 7.32738 2.8377 0.215534 -6.41235 0.739671 -5.57265 0.27238 -5.83807 13.6338 -0.0666284 -10.0077 -0.0 0.0 0.0 -0.0 0.0 0.0 2.23007e-14 1.10516e-13 -6.21202e-15 13.267 17.4752 24.4909 -28.1852 -31.8623 70.2319 -2.59096 40.7808 6.96306 -5.33541e-10 -3.22336e-09 -7.92454e-10 -9.42945e-10 -5.524e-09 -1.34893e-09 -5.33536e-10 -3.22335e-09 -7.92457e-10 7.73091 5.47488 0.417314 -5.33541e-10 -3.22336e-09 -7.92454e-10 2.90554 0.965183 0.102902 -5.33533e-10 -3.22336e-09 -7.92453e-10 10.2786 0.731801 0.0259123 -5.3355e-10 -3.22336e-09 -7.92445e-10 2.22167 -0.733487 -0.20892 2.22284e-14 1.10533e-13 -6.5102e-15 -44.1868 52.9119 -29.8537 25.2892 -47.5334 -98.9004 3.29896 -44.7385 8.00525 -4.69714e-10 -4.47135e-10 -6.86516e-10 -7.85609e-10 -8.64281e-10 -1.20096e-09 -4.69719e-10 -4.47138e-10 -6.8651e-10 -7.73091 5.47488 -0.417314 -4.69714e-10 -4.47138e-10 -6.86513e-10 -2.90554 0.965183 -0.102902 -4.69717e-10 -4.47138e-10 -6.86516e-10 -10.2786 0.731801 -0.0259123 -4.69705e-10 -4.47137e-10 -6.86526e-10 -2.22167 -0.733487 0.20892 -2.03217e-16 0.0 -3.88251e-19 -21.6041 -2.89672 -0.0110227 0.000355735 -0.383415 0.00331932 0.538838 3.27609 -0.0233573 2.03217e-16 0.0 3.88251e-19 8.18466 -15.098 -8.02858 0.073599 22.8046 -0.500134 1.71453 -14.2654 7.85458
-5.45232 83.7536 27.4489 -1.8148 4.3843 4.144 -4.0844 7.22213 2.72395 0.121311 -6.47553 0.704999 -5.60091 0.355826 -5.91064 13.7771 -0.126911 -10.1452 -0.0 0.0 0.0 -0.0 0.0 0.0 1.64752e-14 8.43145e-14 -1.02293e-14 13.3234 14.936 23.7 -28.1613 -31.6836 69.948 -2.52212 40.3531 6.85773 -4.32676e-10 -2.5871e-09 -5.91226e-10 -7.63469e-10 -4.42951e-09 -1.00508e-09 -4.32672e-10 -2.58708e-09 -5.91229e-10 7.73091 5.47488 0.417314 -4.32678e-10 -2.58709e-09 -5.91224e-10 2.90554 0.965183 0.102902 -4.32668e-10 -2.5871e-09 -5.91224e-10 10.2786 0.731801 0.0259123 -4.32684e-10 -2.5871e-09 -5.91215e-10 2.22167 -0.733487 -0.20892 1.63994e-14 8.43293e-14 -1.05402e-14 -44.0339 52.9419 -30.0134 25.3295 -47.4675 -98.7517 3.28907 -44.6885 7.9912 -4.65497e-10 -2.00539e-10 -5.72478e-10 -7.82478e-10 -4.30362e-10 -1.00473e-09 -4.65502e-10 -2.00541e-10 -5.72472e-10 -7.73091 5.47488 -0.417314 -4.65497e-10 -2.00543e-10 -5.72474e-10 -2.90554 0.965183 -0.102902 -4.65499e-10 -2.00541e-10 -5.72478e-10 -10.2786 0.731801 -0.0259123 -4.65491e-10 -2.0054e-10 -5.72487e-10 -2.22167 -0.733487 0.20892 -2.03217e-16 0.0 -3.88251e-19 -21.6101 -2.89036 -0.0108213 0.00038463 -0.389695 0.00358058 0.543067 3.27587 -0.0239589 2.03217e-16 0.0 3.88251e-19 8.28499 -15.1679 -8.17267 0.0733338 22.7729 -0.499287 1.69683 -14.2415 7.82258
-5.51826 83.7559 27.4584 -1.8979 4.5028 4.1974 -3.9888 7.09657 2.72349 0.00726029 -6.56426 0.701222 -5.62845 0.45396 -6.02516 13.9782 -0.157739 -10.3705 -0.0 0.0 0.0 -0.0 0.0 0.0 5.17593e-15 6.27125e-14 -8.38933e-15 13.1415 12.2222 23.1698 -28.1401 -31.5285 69.6987 -2.44048 39.83 6.73111 -2.10692e-10 -1.65719e-09 -3.59536e-10 -3.74263e-10 -2.84271e-09 -6.12668e-10 -2.10689e-10 -1.65717e-09 -3.59539e-10 7.73091 5.47488 0.417314 -2.10695e-10 -1.65718e-09 -3.59528e-10 2.90554 0.965183 0.102902 -2.10684e-10 -1.65719e-09 -3.59533e-10 10.2786 0.731801 0.0259123 -2.10699e-10 -1.65719e-09 -3.59523e-10 2.22167 -0.733487 -0.20892 5.10837e-15 6.27205e-14 -8.70304e-15 -43.901 53.025 -30.2023 25.3702 -47.4002 -98.6004 3.27746 -44.6297 7.97469 -4.48026e-10 1.18251e-10 -4.12606e-10 -7.58329e-10 1.34765e-10 -7.28309e-10 -4.48029e-10 1.18251e-10 -4.12601e-10 -7.73091 5.47488 -0.417314 -4.48025e-10 1.18249e-10 -4.12601e-10 -2.90554 0.965183 -0.102902 -4.48026e-10 1.18251e-10 -4.12607e-10 -10.2786 0.731801 -0.0259123 -4.48021e-10 1.18252e-10 -4.12615e-10 -2.22167 -0.733487 0.20892 -2.03217e-16 0.0 -3.88251e-19 -21.6164 -2.8825 -0.0106019 0.000410108 -0.397979 0.00381346 0.546958 3.27613 -0.0245069 2.03217e-16 0.0 3.88251e-19 8.38062 -15.2466 -8.32366 0.0728587 22.7324 -0.49894 1.7121 -14.2329 7.89005
